<?xml version="1.0" encoding="UTF-8"?>
<svg width="32" height="32" viewBox="0 0 32 32" fill="none" xmlns="http://www.w3.org/2000/svg">
    <rect width="32" height="32" rx="8" fill="#1DB954"/>
    <path d="M16 8C11.5817 8 8 11.5817 8 16C8 20.4183 11.5817 24 16 24C20.4183 24 24 20.4183 24 16C24 11.5817 20.4183 8 16 8ZM21.5 16C21.5 18.4853 19.4853 20.5 17 20.5C14.5147 20.5 12.5 18.4853 12.5 16C12.5 13.5147 14.5147 11.5 17 11.5C19.4853 11.5 21.5 13.5147 21.5 16Z" fill="white"/>
    <path d="M17 13.5C15.6193 13.5 14.5 14.6193 14.5 16C14.5 17.3807 15.6193 18.5 17 18.5C18.3807 18.5 19.5 17.3807 19.5 16C19.5 14.6193 18.3807 13.5 17 13.5Z" fill="#1DB954"/>
</svg> 